<svg width="32" height="22" viewBox="0 0 32 22" fill="none" xmlns="http://www.w3.org/2000/svg">
<g clip-path="url(#clip0_11806_134351)">
<rect width="32" height="22" rx="2.29" fill="#375F89"/>
<g clip-path="url(#clip1_11806_134351)">
<path d="M10.0604 0.861709C10.5922 0.944657 10.9452 1.45773 11.0564 1.96421C11.1677 2.47069 11.1063 2.99695 11.1677 3.51112C11.2286 4.0253 11.4566 4.57353 11.9428 4.79711C11.9976 4.82237 12.0585 4.84325 12.1182 4.83336C12.2525 4.81084 12.3057 4.65703 12.3369 4.52958C12.4389 4.11704 12.6066 3.68746 12.9678 3.44301C13.2589 3.2458 13.6284 3.20075 13.9693 3.10187C14.3103 3.00299 14.6671 2.80688 14.7537 2.47509C14.8464 2.12132 14.5975 1.73459 14.7302 1.39236C14.8453 1.09517 15.218 0.927628 15.286 0.617257C15.3364 0.385989 15.2038 0.119565 15.3381 -0.0781941C15.4159 -0.193553 15.5612 -0.244641 15.6845 -0.313307C15.8084 -0.382523 15.9284 -0.504474 15.8977 -0.63906C15.8517 -0.840664 15.5431 -0.838466 15.3523 -0.742883C15.1615 -0.6473 14.95 -0.503924 14.7526 -0.586324C14.6096 -0.645651 14.5438 -0.799464 14.4511 -0.919767C14.2275 -1.20926 13.8147 -1.31528 13.4414 -1.27628C13.0682 -1.23728 12.7223 -1.07688 12.3835 -0.921415C12.0448 -0.765955 11.695 -0.611044 11.3206 -0.583028C10.6892 -0.536335 10.0895 -0.668723 9.63179 -0.143015C9.47885 0.0327705 9.23438 0.326112 9.31715 0.568367C9.4202 0.871597 9.80171 0.820509 10.0621 0.861709H10.0604Z" fill="#61BF5E"/>
<path d="M-1.33623 3.67364C-0.493172 3.63244 0.376745 4.1164 0.614095 4.91678C0.750037 5.37382 0.81143 6.005 0.78183 6.47303C0.743459 7.08828 0.204625 7.78592 0.463353 8.39623C0.623414 8.77417 1.05426 8.96039 1.37932 9.22297C2.28486 9.95523 2.42245 11.3621 3.42776 11.9625C4.02415 12.3184 4.81239 12.3075 5.37261 12.7145C5.67738 12.9359 5.88732 13.2633 6.20306 13.4704C6.37463 13.583 6.58128 13.6637 6.6931 13.8324C7.00007 14.2955 6.44315 14.6948 6.3834 15.1365C6.31981 15.6073 6.47439 16.1077 6.79945 16.4659C7.04283 16.734 7.28401 16.9015 7.46984 17.2196C7.65566 17.5371 7.79599 17.8793 7.88808 18.2325C8.29535 19.7926 7.48299 21.3291 7.78941 22.8799C7.88259 23.3512 8.07609 23.8033 8.35017 24.2043C8.46692 24.3751 9.21625 25.2085 9.09346 24.5949C9.04358 24.3466 8.8457 24.1246 8.77225 23.8791C8.68728 23.5956 8.67248 23.2902 8.7273 23.0002C8.85885 22.3064 9.29957 21.7087 9.72877 21.1368C10.2002 20.5084 10.6716 19.8805 11.143 19.2521C11.3425 18.9868 11.5541 18.7104 11.8616 18.5687C12.1642 18.4297 12.5682 18.4083 12.7294 18.126C12.9673 17.709 12.4273 17.1377 12.7074 16.7449C12.9048 16.4681 13.4387 16.4208 13.4447 16.0852C13.448 15.9105 13.2874 15.7787 13.1421 15.6737C12.2766 15.0508 11.4111 14.4279 10.5455 13.8049C9.86307 13.3138 8.85776 12.8057 8.02676 12.9892C7.97523 12.8095 7.7165 12.7623 7.5389 12.8376C7.3613 12.9128 7.23413 13.065 7.0801 13.1781C6.92607 13.2913 6.70297 13.3644 6.54181 13.26C6.28035 13.0913 6.42999 12.6574 6.2184 12.4327C6.01778 12.2196 5.60447 12.3124 5.41317 12.0916C5.2394 11.8905 5.39892 11.6351 5.29751 11.428C5.17363 11.1747 4.93847 11.4521 4.68687 11.506C4.47966 11.5505 4.24506 11.5258 4.085 11.3923C3.82956 11.1797 3.76707 10.5787 3.94357 10.3008C4.16831 9.94699 4.81294 9.54433 5.25092 9.58333C5.60721 9.61519 6.08301 10.2167 6.37627 10.1332C6.6931 10.0426 6.7671 9.3658 6.90579 9.12574C7.1826 8.64507 7.56357 8.22758 7.94179 7.81943C8.36716 7.35964 8.8002 6.89381 9.33849 6.56037C9.67834 6.35053 10.1366 6.15716 10.3126 5.77043C10.5192 5.31669 10.2199 4.83822 9.794 4.66518C9.35822 4.48775 9.10717 4.44765 8.93505 3.94446C8.74155 3.37755 8.80842 2.7634 8.69934 2.18112C8.61328 1.72078 8.39238 1.25 7.97852 1.03137C7.59427 0.828117 7.14862 0.884149 6.73147 0.873162C6.38011 0.863823 5.93227 0.85833 5.95365 0.377667C5.96845 0.0502664 5.84511 -0.348547 5.51184 -0.420509C4.96971 -0.538615 4.67097 -0.525431 4.1272 -0.414466C3.58344 -0.303502 3.08681 0.00906661 2.7645 0.444136C2.60115 0.664417 2.47781 0.917657 2.26677 1.09674C2.09575 1.24176 1.87923 1.32801 1.66216 1.39502C1.18691 1.5417 0.685903 1.61091 0.186537 1.59828C-0.767248 1.57411 -1.82299 1.07586 -2.77403 1.28296C-3.55625 1.4538 -4.06987 2.09707 -4.13893 2.85349C-4.17127 3.20671 -4.05178 3.43633 -3.77277 3.63684C-3.60777 3.75549 -3.28656 3.96314 -3.38687 4.22297C-3.48115 4.46742 -4.0737 4.57894 -4.30064 4.67452C-4.40533 4.71847 -4.5199 4.77175 -4.55991 4.87448C-4.61199 5.00687 -4.50181 5.15848 -4.36203 5.20298C-4.22225 5.24747 -4.06877 5.21122 -3.93228 5.15848C-3.19447 4.87338 -2.72854 4.14442 -2.00443 3.828C-1.79284 3.73572 -1.56645 3.68573 -1.33787 3.67474L-1.33623 3.67364Z" fill="#61BF5E"/>
<path d="M33.4468 13.0084C33.5427 13.0606 33.6507 13.0935 33.7593 13.1089C33.8596 13.1238 33.961 13.1249 34.0624 13.1205C34.1309 13.1172 34.2268 13.1243 34.2866 13.0831C34.4006 13.0034 34.4275 12.7832 34.3968 12.6618C34.3485 12.4717 34.2033 12.3206 34.0651 12.1767C33.927 12.0328 33.7845 11.8779 33.745 11.6856C33.7012 11.4708 33.8086 11.2346 34.0026 11.1192C34.1967 11.0044 34.4647 11.0182 34.6451 11.1522C34.917 11.3544 35.1022 11.2533 35.3999 11.0874C35.6975 10.922 35.902 10.6106 35.9288 10.2815C35.9787 9.67891 35.4826 9.15759 35.3889 8.55937C35.3456 8.28471 35.4487 7.93588 35.7326 7.8837C35.9365 7.84579 36.1328 7.98587 36.255 8.14683C36.3772 8.30833 36.4578 8.49895 36.602 8.64287C36.7078 8.74889 36.8832 8.82525 37.0109 8.7445C37.1123 8.68023 37.1353 8.54234 37.109 8.42808C37.0832 8.31382 37.0197 8.21055 36.984 8.09849C36.8421 7.65353 37.2576 7.13386 37.7421 7.15034C38.0858 6.91633 37.8868 6.43237 37.7487 6.05004C37.6106 5.6677 37.3606 5.32053 37.2921 4.92116C37.2236 4.5218 37.4374 4.02631 37.8567 3.98401C38.1965 3.94995 38.5002 4.22516 38.8423 4.22022C39.1492 4.21582 39.3997 3.9895 39.5921 3.75988C39.7845 3.53026 39.9665 3.27153 40.2472 3.15232C40.4615 3.06113 40.7778 3.10947 40.8375 3.32756C40.877 3.47038 40.7838 3.61925 40.6643 3.71319C40.5448 3.80657 40.399 3.86425 40.2751 3.95215C40.0164 4.13617 39.8706 4.45698 39.9062 4.7646C39.9391 5.04531 40.1611 5.46994 40.5103 5.3804C40.8419 5.29581 40.9817 4.73 40.9757 4.4427C40.9729 4.29328 40.9455 4.13178 41.0272 4.00488C41.1988 3.73956 41.634 3.87359 41.9328 3.74944C42.2995 3.59673 42.3992 3.07542 42.7829 2.9672C42.943 2.92215 43.1277 2.96006 43.2697 2.87601C43.4687 2.75736 43.4561 2.45412 43.3042 2.28273C43.1529 2.11134 42.9156 2.03773 42.6919 1.97236C42.3241 1.86524 41.9563 1.75758 41.5891 1.65046C41.327 1.5741 41.0563 1.49664 40.7838 1.52246C40.4599 1.55322 40.1655 1.72626 39.8421 1.76252C39.2687 1.82624 38.7557 1.45874 38.2311 1.22857C37.5607 0.93413 36.79 0.855027 36.0692 1.00609C35.7562 1.07201 35.4382 1.18023 35.1242 1.1209C34.8857 1.07586 34.6796 0.939074 34.4653 0.829208C34.012 0.597391 33.5356 0.472693 33.0412 0.577615C32.5769 0.676495 32.4618 0.474341 32.3083 0.102995C32.1581 -0.260112 31.6861 -0.259563 31.3348 -0.254619L31.0064 -0.223307C30.2522 -0.0755374 29.544 0.233186 28.8434 0.539712C28.5414 0.6721 28.1939 0.864365 28.178 1.18243C28.1741 1.25659 28.1884 1.33679 28.1478 1.39996C28.0601 1.53565 27.8293 1.44446 27.7455 1.30658C27.6616 1.16869 27.632 0.99181 27.4983 0.896776C27.2839 0.744612 26.9578 0.939623 26.8947 1.18792C26.8317 1.43622 26.943 1.69166 27.0515 1.92512C26.6481 1.9394 26.0994 1.64551 25.7518 1.86085C25.5348 1.99543 25.4421 2.05641 25.1489 2.04487C24.9833 2.03828 24.8068 2.03663 24.666 2.12068C24.4949 2.22286 24.4171 2.42831 24.2494 2.53598C24.0378 2.67166 23.7423 2.60739 23.5362 2.46401C23.3301 2.32064 23.1854 2.11244 23.016 1.93006C22.8466 1.74769 22.6312 1.58014 22.3769 1.56476C21.9197 1.53784 21.4483 1.38348 21.0542 1.60761C20.6031 1.8636 20.5175 2.38436 20.1327 2.68704C19.6646 3.05509 18.9641 3.28911 18.8819 3.93896C18.8671 4.05817 18.8797 4.19275 18.9707 4.27515C19.06 4.3559 19.1987 4.36085 19.3187 4.33833C19.4393 4.3158 19.5561 4.27021 19.6789 4.26636C19.9288 4.25867 20.1903 4.42237 20.4145 4.3158C20.6935 4.18341 20.7779 3.67583 20.859 3.40996C20.9215 3.20396 20.9407 2.57992 21.3003 2.76285C21.6144 2.9227 21.4488 3.55333 21.3918 3.80493C21.2877 4.26362 21.3184 4.84755 20.8782 5.15463C20.6239 5.33206 20.2742 5.35184 19.9771 5.25241C19.8559 5.21176 19.7578 5.14035 19.6443 5.08706C19.1346 4.84865 19.3626 5.62431 18.8972 5.54905C18.8079 5.53477 18.7147 5.50455 18.6292 5.53367C18.5234 5.56992 18.4713 5.68034 18.4181 5.77537C18.3184 5.9539 18.1764 6.10991 18.007 6.22967C17.9204 6.29119 17.7203 6.29504 17.6556 6.38513C17.5405 6.54498 17.7505 6.70209 17.8853 6.78394C18.0021 6.85535 18.1276 6.86194 18.1221 7.01741C18.1161 7.20253 17.8371 7.32942 17.677 7.33931C17.5159 7.3492 17.0888 7.23439 16.9924 7.38161C16.9535 7.44039 17.0022 7.6332 16.9968 7.70626C16.9863 7.84305 16.9551 7.97873 16.9041 8.10673C16.8614 8.21439 16.8033 8.3292 16.8367 8.44017C16.9392 8.7802 17.774 8.76977 18.0059 8.59947C18.2279 8.43632 18.132 8.01828 18.3649 7.80295C18.4631 7.71231 18.588 7.65298 18.6856 7.55959C18.8128 7.43819 18.9169 7.21022 19.1126 7.17836C19.3154 7.1454 19.5665 7.35359 19.7046 7.48214C19.8389 7.60738 19.9529 7.75131 20.0867 7.87766C20.1804 7.96665 20.2731 8.04575 20.3394 8.15726C20.3778 8.22099 20.42 8.4528 20.5066 8.46379C20.5439 8.46873 20.5756 8.43852 20.6003 8.4116C20.711 8.2891 20.8294 8.14353 20.8015 7.98313C20.7724 7.81613 20.5992 7.7145 20.4446 7.6332C20.2966 7.55575 19.8143 7.09266 20.2742 7.20088C20.5784 7.27229 20.7982 7.592 20.9199 7.84634C20.9851 7.98258 21.001 8.30503 21.2082 8.32206C21.4582 8.34294 21.4187 7.98917 21.5651 7.88425C21.7037 7.78482 21.9394 7.81888 22.0052 7.97269C22.0661 8.11551 21.9663 8.27921 21.9943 8.43138C22.0365 8.6621 22.3259 8.75054 22.5643 8.80053C22.9897 8.89062 23.2989 9.23395 22.9091 9.59486C22.6356 9.8481 22.0842 9.71022 21.8079 9.53608C21.5793 9.39216 21.4335 9.16583 21.1824 9.36524C21.0185 9.49543 20.8749 9.69374 20.642 9.70308C20.4057 9.71187 20.2221 9.50807 20.1168 9.30481C20.0116 9.10156 19.9376 8.87084 19.7556 8.72637C19.4673 8.4984 19.0414 8.57915 18.6807 8.67253C18.3233 8.76482 17.9653 8.85711 17.6079 8.94995C17.4101 9.00103 17.1623 9.0719 17.0614 9.25373C16.926 9.49873 16.9052 9.74098 16.6969 9.96181C16.4903 10.1815 16.2134 10.3387 16.0369 10.5815C15.7683 10.9501 15.7952 11.4214 15.7733 11.8477C15.7492 12.3179 16.0216 12.7453 16.2929 13.1216C16.4749 13.3742 16.6887 13.6231 16.9809 13.7483C17.7154 14.0637 18.5891 13.5484 19.2634 14.0862C19.4859 14.2636 19.5632 14.5278 19.7134 14.7575C20.0461 15.2656 20.2807 15.883 20.1092 16.4802C20.0231 16.7801 19.8965 17.0806 19.9266 17.3898C19.9469 17.5953 20.0352 17.7881 20.1031 17.9842C20.3558 18.7104 20.346 19.5289 20.7659 20.1799C20.8607 20.3271 20.9857 20.4688 21.1567 20.5243C21.3156 20.576 21.4894 20.5452 21.6539 20.5139C22.0354 20.4414 22.4355 20.3584 22.5868 19.9827C22.7496 19.5773 23.033 19.274 23.3126 18.9329C23.4567 18.7571 23.608 18.5605 23.6003 18.3369C23.5927 18.1216 23.437 17.9057 23.5187 17.7052C23.5927 17.5222 23.8245 17.4547 23.961 17.3085C24.1173 17.1421 24.131 16.8922 24.0898 16.6713C24.0493 16.4505 23.9627 16.2374 23.9484 16.0138C23.927 15.6853 24.0652 15.3623 24.2664 15.0958C24.467 14.8294 24.7284 14.6113 24.9872 14.396C25.3873 14.0626 25.6049 13.8384 25.7157 13.3407C25.7442 13.2133 25.7464 13.0518 25.6302 12.9842C25.4739 12.8936 25.298 13.06 25.1242 13.1128C24.9526 13.1655 24.7602 13.0979 24.6248 12.9837C24.4895 12.8694 24.4001 12.714 24.3151 12.5612C24.0882 12.1514 23.8766 11.7339 23.6798 11.3104C23.5888 11.1143 23.5236 10.8731 23.4008 10.6946C23.2983 10.5452 23.1657 10.4419 23.0895 10.2661C23.0018 10.064 23.198 10.0151 23.3252 10.1453C23.4326 10.2552 23.5324 10.493 23.6217 10.6287C23.8081 10.91 23.9665 11.2011 24.16 11.4796C24.3217 11.712 24.5021 11.8965 24.5733 12.1767C24.6303 12.4025 24.7109 12.6656 24.9389 12.7425C25.1302 12.8073 25.3363 12.7063 25.5063 12.6002C26.032 12.2728 26.4557 11.8037 26.9052 11.384C26.9671 11.3258 27.0329 11.2615 27.0438 11.1786C27.0543 11.1006 27.0115 11.0231 26.9512 10.9704C26.8909 10.9176 26.8147 10.8847 26.7396 10.8539C26.4683 10.743 26.1794 10.6139 25.8894 10.5584C25.6493 10.5128 25.5326 10.4699 25.3627 10.2738C25.2881 10.1881 25.0206 9.8871 25.1922 9.78163C25.2985 9.71626 25.5479 9.96675 25.6175 10.0211C25.8341 10.1898 26.0555 10.3315 26.3236 10.4145C26.5412 10.4815 26.7944 10.571 27.0208 10.588C27.3387 10.6122 27.6643 10.5474 27.9636 10.6858C28.1303 10.7627 28.2635 10.8935 28.3824 11.0297C28.6867 11.3785 28.9585 11.79 29.112 12.2229C29.2512 12.6156 29.3411 13.1611 29.6942 13.4369C29.8482 13.2276 30.0072 12.9644 30.0779 12.7145C30.1277 12.5393 30.125 12.3585 30.2001 12.1893C30.381 11.7834 30.9111 10.9643 31.4603 11.0165C31.7168 11.0407 31.9016 11.4994 32.0194 11.6884C32.1164 11.8433 32.311 11.9295 32.4722 11.9987C32.6536 12.0767 32.8356 12.1751 32.9573 12.3355C33.0801 12.4975 33.1294 12.7085 33.2637 12.8612C33.3152 12.92 33.3777 12.9677 33.4463 13.0056L33.4468 13.0084Z" fill="#61BF5E"/>
<path d="M25.6844 16.8746C25.7491 17.1312 25.6575 17.3987 25.5452 17.6398C25.4328 17.8804 25.2969 18.1188 25.2678 18.3809C25.2486 18.5539 25.2673 18.7533 25.1368 18.8736C25.0036 18.9967 24.7635 18.9566 24.6468 18.8187C24.53 18.6808 24.5234 18.4798 24.5865 18.3133C24.6972 18.0205 24.7361 17.9266 24.6955 17.6245C24.667 17.4124 24.6687 17.3498 24.8441 17.2223C24.9959 17.1114 25.116 17.0784 25.2448 16.9307C25.3643 16.7939 25.5918 16.511 25.6839 16.8752L25.6844 16.8746Z" fill="#61BF5E"/>
<path d="M17.6118 5.84679C17.6326 5.88524 17.6968 5.91161 17.8316 5.9193C18.4828 5.9572 18.3025 5.35624 18.0591 5.02005C18.0015 4.94039 17.6277 4.50258 17.5811 4.71187C17.523 4.9728 17.8316 5.15848 17.8031 5.41831C17.7866 5.56718 17.557 5.74681 17.6112 5.84624L17.6118 5.84679Z" fill="#61BF5E"/>
<path d="M17.3936 5.3403C17.3459 5.19528 17.2193 5.08376 17.0329 5.12936C16.9003 5.16177 16.8306 5.43314 16.7786 5.53861C16.7627 5.57102 16.7462 5.60563 16.7484 5.64188C16.7534 5.71165 16.8263 5.75889 16.8964 5.77921C17.3355 5.90721 17.472 5.57871 17.3936 5.3403V5.3403Z" fill="#61BF5E"/>
<path d="M15.8314 2.65796C15.6351 2.77991 15.4389 2.90131 15.2427 3.02326C15.1807 3.06172 15.1122 3.11006 15.1062 3.18092C15.0985 3.27486 15.2054 3.33858 15.3008 3.35835C15.5704 3.41329 15.844 3.30177 16.095 3.19246C16.1822 3.15455 16.2699 3.11665 16.357 3.0782C16.4173 3.05183 16.4859 3.01612 16.4957 2.95295C16.5078 2.87385 16.4206 2.81672 16.3439 2.78705C16.1487 2.71179 15.9372 2.67664 15.7267 2.68488" fill="#61BF5E"/>
<path d="M19.7134 -0.618178C19.7435 -0.833515 19.9869 -0.884603 20.1821 -0.918112C20.4468 -0.963707 20.6595 -1.0483 20.9166 -1.12356C21.0827 -1.1719 21.2844 -1.16916 21.4033 -1.04775C21.4286 -1.02194 21.4499 -0.988426 21.4466 -0.953269C21.4412 -0.89504 21.3759 -0.862081 21.3195 -0.840108C21.1775 -0.784625 21.0355 -0.729143 20.893 -0.673661C20.99 -0.607192 21.0931 -0.533032 21.1282 -0.423716C21.1632 -0.314399 21.0854 -0.167728 20.967 -0.177616C20.8289 -0.188603 20.7593 -0.385812 20.6211 -0.377572C20.4972 -0.369881 20.46 -0.212773 20.4627 -0.0935687C20.4644 -0.00897192 20.4687 0.0778221 20.4402 0.158574C20.2533 0.688677 19.7068 -0.360543 19.7101 -0.578077C19.7101 -0.59236 19.7112 -0.605544 19.7134 -0.618728V-0.618178Z" fill="#61BF5E"/>
<path d="M24.9734 1.48237C25.0101 1.63947 25.1466 1.81581 25.3072 1.76802C25.4114 1.73725 25.464 1.62299 25.469 1.51862C25.4739 1.41425 25.4454 1.31043 25.4476 1.20605C25.4542 0.892386 25.7354 0.644089 26.0308 0.509503C26.3263 0.374918 26.6563 0.311745 26.9353 0.148594C27.035 0.0903648 27.1375 -0.0260929 27.075 -0.120578C27.029 -0.190892 26.9243 -0.193089 26.8382 -0.182652C26.0483 -0.0887165 24.7531 0.53697 24.9729 1.48237H24.9734Z" fill="#61BF5E"/>
</g>
</g>
<defs>
<clipPath id="clip0_11806_134351">
<rect width="32" height="22" rx="2.29" fill="white"/>
</clipPath>
<clipPath id="clip1_11806_134351">
<rect width="48.9796" height="27.4286" fill="white" transform="translate(-4.57141 -2.6123)"/>
</clipPath>
</defs>
</svg>
